<?xml version="1.0" encoding="utf-8"?>
<!-- Generated by IcoMoon.io -->
<!DOCTYPE svg PUBLIC "-//W3C//DTD SVG 1.1//EN" "http://www.w3.org/Graphics/SVG/1.1/DTD/svg11.dtd">

<svg version="1.1" xmlns="http://www.w3.org/2000/svg" xmlns:xlink="http://www.w3.org/1999/xlink" width="48" height="192" viewBox="0 0 48 192">
<defs>
<g id="icon-times">
	<path class="path1" d="M11.609 4.391c-0.52-0.521-1.365-0.521-1.885 0l-1.724 1.724-1.724-1.724c-0.52-0.521-1.365-0.521-1.885 0s-0.521 1.365 0 1.885l1.723 1.724-1.723 1.724c-0.521 0.521-0.521 1.365 0 1.885 0.26 0.261 0.601 0.391 0.943 0.391s0.683-0.13 0.943-0.391l1.724-1.724 1.724 1.724c0.26 0.261 0.601 0.391 0.943 0.391s0.683-0.13 0.943-0.391c0.521-0.521 0.521-1.365 0-1.885l-1.723-1.724 1.723-1.724c0.521-0.521 0.521-1.365 0-1.885z"></path>
</g>
<g id="icon-plus">
	<path class="path1" d="M12 6.667h-2.667v-2.667c0-0.736-0.597-1.333-1.333-1.333s-1.333 0.597-1.333 1.333l0.047 2.667h-2.714c-0.736 0-1.333 0.597-1.333 1.333s0.597 1.333 1.333 1.333l2.714-0.047-0.047 2.714c0 0.736 0.597 1.333 1.333 1.333s1.333-0.597 1.333-1.333v-2.714l2.667 0.047c0.736 0 1.333-0.597 1.333-1.333s-0.597-1.333-1.333-1.333z"></path>
</g>
<g id="icon-minus">
	<path class="path1" d="M12 7.333h-8c-0.736 0-1.333 0.597-1.333 1.333s0.597 1.333 1.333 1.333h8c0.736 0 1.333-0.597 1.333-1.333s-0.597-1.333-1.333-1.333z"></path>
</g>
<g id="icon-star">
	<path class="path1" d="M6.241 6.105c0 0-2.107 0.233-3.512 0.389-0.127 0.015-0.239 0.1-0.281 0.229s0 0.263 0.093 0.347c1.044 0.953 2.613 2.379 2.613 2.379-0.001 0-0.431 2.075-0.716 3.46-0.024 0.125 0.021 0.258 0.131 0.337s0.249 0.081 0.359 0.019c1.229-0.699 3.071-1.749 3.071-1.749s1.842 1.051 3.069 1.75c0.112 0.061 0.252 0.060 0.361-0.019s0.155-0.212 0.13-0.337c-0.285-1.385-0.714-3.461-0.714-3.461s1.569-1.427 2.613-2.377c0.093-0.087 0.135-0.221 0.093-0.349s-0.153-0.213-0.28-0.227c-1.405-0.157-3.513-0.391-3.513-0.391s-0.873-1.932-1.455-3.22c-0.055-0.115-0.169-0.196-0.304-0.196s-0.25 0.081-0.302 0.196c-0.583 1.288-1.455 3.22-1.455 3.22z"></path>
</g>
<g id="icon-calender">
	<path class="path1" d="M12.667 4.123v-0.123c0-1.105-0.895-2-2-2s-2 0.895-2 2h-1.333c0-1.105-0.895-2-2-2s-2 0.895-2 2v0.123c-0.774 0.277-1.333 1.009-1.333 1.877v6c0 1.103 0.897 2 2 2h8c1.103 0 2-0.897 2-2v-6c0-0.868-0.559-1.601-1.333-1.877zM10 4c0-0.368 0.298-0.667 0.667-0.667s0.667 0.299 0.667 0.667v1.333c0 0.368-0.298 0.667-0.667 0.667s-0.667-0.299-0.667-0.667v-1.333zM4.667 4c0-0.368 0.298-0.667 0.667-0.667s0.667 0.299 0.667 0.667v1.333c0 0.368-0.298 0.667-0.667 0.667s-0.667-0.299-0.667-0.667v-1.333zM12.667 12c0 0.367-0.299 0.667-0.667 0.667h-8c-0.368 0-0.667-0.299-0.667-0.667v-4h9.333v4z"></path>
</g>
<g id="icon-arrow-sync">
	<path class="path1" d="M13 8.315c0-1.299-0.412-2.265-1.377-3.229-0.261-0.26-0.682-0.26-0.943 0s-0.261 0.683 0 0.943c0.719 0.719 0.987 1.338 0.987 2.286 0 0.979-0.381 1.9-1.074 2.592-0.669 0.669-1.385 1.001-2.285 1.062l0.831-0.831c0.261-0.261 0.261-0.682 0-0.943s-0.682-0.261-0.943 0l-2.471 2.471 2.471 2.471c0.13 0.13 0.301 0.195 0.471 0.195s0.341-0.065 0.471-0.195c0.261-0.261 0.261-0.682 0-0.943l-0.891-0.891c1.282-0.055 2.361-0.528 3.289-1.454 0.945-0.944 1.465-2.199 1.465-3.535z"></path>
	<path class="path2" d="M4.333 8.333c0-0.979 0.381-1.9 1.074-2.593 0.673-0.673 1.395-1.005 2.305-1.063l-0.85 0.85c-0.261 0.261-0.261 0.682 0 0.943 0.13 0.131 0.301 0.196 0.471 0.196s0.341-0.065 0.471-0.195l2.471-2.471-2.471-2.471c-0.261-0.261-0.682-0.261-0.943 0s-0.261 0.682 0 0.943l0.874 0.874c-1.276 0.057-2.35 0.531-3.271 1.453-0.945 0.944-1.465 2.199-1.465 3.535 0 1.299 0.412 2.265 1.377 3.229 0.13 0.13 0.301 0.195 0.471 0.195s0.341-0.065 0.471-0.195c0.261-0.261 0.261-0.683 0-0.943-0.719-0.718-0.987-1.337-0.987-2.285z"></path>
</g>
<g id="icon-trash">
	<path class="path1" d="M12 4.667h-0.667v-0.667c0-0.736-0.597-1.333-1.333-1.333h-4.667c-0.736 0-1.333 0.597-1.333 1.333v0.667h-0.667c-0.368 0-0.667 0.299-0.667 0.667s0.299 0.667 0.667 0.667v5.333c0 1.471 1.196 2.667 2.667 2.667h3.333c1.471 0 2.667-1.196 2.667-2.667v-5.333c0.368 0 0.667-0.299 0.667-0.667s-0.299-0.667-0.667-0.667zM5.333 4h4.667v0.667h-4.667v-0.667zM10.667 11.333c0 0.736-0.597 1.333-1.333 1.333h-3.333c-0.736 0-1.333-0.597-1.333-1.333v-5.333h6v5.333z"></path>
	<path class="path2" d="M5.667 7c-0.183 0-0.333 0.15-0.333 0.333v4c0 0.183 0.15 0.333 0.333 0.333s0.333-0.15 0.333-0.333v-4c0-0.183-0.15-0.333-0.333-0.333z"></path>
	<path class="path3" d="M7 7c-0.183 0-0.333 0.15-0.333 0.333v4c0 0.183 0.15 0.333 0.333 0.333s0.333-0.15 0.333-0.333v-4c0-0.183-0.15-0.333-0.333-0.333z"></path>
	<path class="path4" d="M8.333 7c-0.183 0-0.333 0.15-0.333 0.333v4c0 0.183 0.15 0.333 0.333 0.333s0.333-0.15 0.333-0.333v-4c0-0.183-0.15-0.333-0.333-0.333z"></path>
	<path class="path5" d="M9.667 7c-0.183 0-0.333 0.15-0.333 0.333v4c0 0.183 0.15 0.333 0.333 0.333s0.333-0.15 0.333-0.333v-4c0-0.183-0.15-0.333-0.333-0.333z"></path>
</g>
<g id="icon-star-outline">
	<path class="path1" d="M11.237 13.977c-0.149 0-0.295-0.033-0.431-0.097-0.023-0.009-0.046-0.021-0.069-0.034l-2.738-1.562-2.738 1.563c-0.023 0.013-0.047 0.025-0.071 0.035-0.325 0.152-0.723 0.116-1.014-0.095-0.313-0.227-0.467-0.622-0.391-1.006l0.638-3.095c-0.249-0.227-0.641-0.583-1.068-0.971l-1.263-1.15c-0.018-0.017-0.037-0.035-0.052-0.055-0.25-0.264-0.339-0.647-0.227-0.995 0.115-0.349 0.413-0.608 0.773-0.673 0.023-0.005 0.045-0.009 0.068-0.012l3.134-0.347 1.297-2.873c0.011-0.025 0.024-0.050 0.040-0.073 0.175-0.315 0.509-0.514 0.873-0.514 0.362 0 0.696 0.199 0.873 0.513 0.014 0.024 0.027 0.049 0.040 0.075l1.299 2.875 3.134 0.347c0.023 0.002 0.045 0.006 0.069 0.011 0.359 0.067 0.657 0.324 0.772 0.675 0.113 0.347 0.023 0.732-0.227 0.996-0.016 0.017-0.034 0.036-0.052 0.052l-2.332 2.123 0.638 3.088c0.075 0.391-0.079 0.785-0.393 1.013-0.168 0.121-0.371 0.187-0.583 0.187zM5.804 9.601c-0.026 0.121-0.311 1.497-0.563 2.721l2.429-1.385c0.205-0.117 0.456-0.117 0.66 0l2.429 1.383-0.566-2.736c-0.047-0.231 0.030-0.47 0.205-0.628l2.067-1.881-2.779-0.307c-0.234-0.026-0.436-0.173-0.534-0.389l-1.152-2.547-1.151 2.547c-0.097 0.215-0.3 0.362-0.534 0.389l-2.779 0.307 2.067 1.881c0.181 0.164 0.256 0.411 0.201 0.644z"></path>
</g>
<g id="icon-cog-outline">
	<path class="path1" d="M8.667 3.333l0.57 2.28 2.259-0.647 1.001 1.733-1.69 1.633 1.69 1.634-1 1.733-2.26-0.647-0.57 2.281h-2l-0.57-2.281-2.26 0.647-1.001-1.733 1.69-1.634-1.689-1.633 1-1.733 2.26 0.647 0.57-2.28h2zM8.667 2h-2c-0.612 0-1.145 0.417-1.293 1.011l-0.236 0.941-0.933-0.267c-0.123-0.035-0.246-0.052-0.368-0.052-0.467 0-0.912 0.247-1.154 0.667l-1 1.733c-0.306 0.531-0.211 1.201 0.228 1.625l0.698 0.674-0.699 0.677c-0.44 0.425-0.535 1.095-0.229 1.625l1.001 1.733c0.242 0.421 0.687 0.667 1.154 0.667 0.122 0 0.245-0.017 0.368-0.051l0.933-0.267 0.236 0.943c0.148 0.59 0.681 1.007 1.293 1.007h2c0.612 0 1.145-0.417 1.293-1.011l0.236-0.943 0.933 0.267c0.123 0.035 0.246 0.051 0.368 0.051 0.467 0 0.912-0.247 1.154-0.667l1-1.733c0.306-0.531 0.211-1.2-0.228-1.625l-0.698-0.675 0.698-0.675c0.44-0.425 0.534-1.096 0.228-1.625l-1-1.733c-0.243-0.421-0.687-0.667-1.155-0.667-0.123 0-0.245 0.017-0.367 0.051l-0.933 0.267-0.236-0.942c-0.147-0.589-0.68-1.006-1.292-1.006z"></path>
	<path class="path2" d="M7.667 7c0.736 0 1.333 0.597 1.333 1.333s-0.597 1.333-1.333 1.333-1.333-0.597-1.333-1.333c0-0.737 0.597-1.333 1.333-1.333zM7.667 6.333c-1.103 0-2 0.897-2 2s0.897 2 2 2 2-0.897 2-2-0.897-2-2-2z"></path>
</g>
<g id="icon-pin-outline">
	<path class="path1" d="M14.291 5.057l-2.665-2.68c-0.501-0.504-1.375-0.509-1.887-0.004-0.131 0.131-0.233 0.291-0.279 0.419-0.435 0.908-0.903 1.477-1.503 1.818l-0.145 0.070c-0.645 0.323-1.523 0.653-3.146 0.653-0.177 0-0.347 0.035-0.511 0.101-0.323 0.135-0.586 0.397-0.721 0.723-0.133 0.323-0.133 0.694 0 1.017 0.069 0.166 0.167 0.314 0.29 0.434l2.157 2.157-2.548 3.569 3.568-2.548 2.151 2.151c0.124 0.126 0.271 0.226 0.437 0.294 0.165 0.069 0.335 0.103 0.511 0.103s0.346-0.035 0.51-0.103c0.332-0.137 0.589-0.395 0.72-0.719 0.069-0.161 0.103-0.338 0.103-0.512 0-1.624 0.329-2.501 0.652-3.147 0.331-0.661 0.913-1.165 1.836-1.609 0.181-0.069 0.34-0.171 0.474-0.305 0.515-0.521 0.512-1.367-0.005-1.881zM10.792 8.258c-0.546 1.095-0.792 2.247-0.797 3.736l-5.329-5.327c1.426 0 2.543-0.223 3.597-0.723l0.157-0.070c0.933-0.466 1.645-1.262 2.259-2.556l2.616 2.701c-1.242 0.595-2.037 1.307-2.503 2.239z"></path>
</g>
<g id="icon-pencil">
	<path class="path1" d="M14 4.586l-2.586-2.586c-0.195-0.195-0.452-0.293-0.707-0.293s-0.511 0.097-0.707 0.293l-7.293 7.293c-0.195 0.195-0.372 0.485-0.5 0.792-0.128 0.309-0.207 0.639-0.207 0.915v3h3c0.276 0 0.605-0.079 0.914-0.207s0.597-0.305 0.793-0.5l7.293-7.293c0.195-0.195 0.293-0.452 0.293-0.707s-0.097-0.511-0.293-0.707zM3.845 10.041l5.529-5.529 0.821 0.821-5.529 5.529-0.821-0.821zM5 12.667h-1l-0.667-0.667v-1c0-0.051 0.022-0.203 0.105-0.403 0.007-0.013 1.978 1.959 1.978 1.959-0.215 0.089-0.365 0.111-0.417 0.111zM5.959 12.155l-0.821-0.821 5.529-5.529 0.821 0.821-5.529 5.529zM11.959 6.155l-2.115-2.115 0.862-0.862 2.113 2.115-0.861 0.862z"></path>
</g>
<g id="icon-media-play">
	<path class="path1" d="M6.931 12.289c1.761-1.716 4.403-4.289 4.403-4.289s-2.642-2.573-4.403-4.289c-0.242-0.233-0.569-0.378-0.931-0.378-0.736 0-1.333 0.597-1.333 1.333v6.667c0 0.736 0.597 1.333 1.333 1.333 0.362 0 0.689-0.145 0.931-0.378z"></path>
</g>
</defs>

<g>
	<use xlink:href="#icon-times" fill="#333333" transform="translate(0 0)"></use>
	<use xlink:href="#icon-times" fill="#666666" transform="translate(16 0)"></use>
	<use xlink:href="#icon-times" fill="#999999" transform="translate(32 0)"></use>

	<use xlink:href="#icon-cog-outline" fill="#333333" transform="translate(0 16)"></use>
	<use xlink:href="#icon-cog-outline" fill="#666666" transform="translate(16 16)"></use>
	<use xlink:href="#icon-cog-outline" fill="#999999" transform="translate(32 16)"></use>

	<use xlink:href="#icon-plus" fill="#333333" transform="translate(0 32)"></use>
	<use xlink:href="#icon-plus" fill="#666666" transform="translate(16 32)"></use>
	<use xlink:href="#icon-plus" fill="#999999" transform="translate(32 32)"></use>

	<use xlink:href="#icon-minus" fill="#333333" transform="translate(0 48)"></use>
	<use xlink:href="#icon-minus" fill="#666666" transform="translate(16 48)"></use>
	<use xlink:href="#icon-minus" fill="#999999" transform="translate(32 48)"></use>

	<use xlink:href="#icon-pin-outline" fill="#333333" transform="translate(0 64)"></use>
	<use xlink:href="#icon-pin-outline" fill="#666666" transform="translate(16 64)"></use>
	<use xlink:href="#icon-pin-outline" fill="#999999" transform="translate(32 64)"></use>

	<use xlink:href="#icon-trash" fill="#333333" transform="translate(0 80)"></use>
	<use xlink:href="#icon-trash" fill="#666666" transform="translate(16 80)"></use>
	<use xlink:href="#icon-trash" fill="#999999" transform="translate(32 80)"></use>

	<use xlink:href="#icon-media-play" fill="#666666" transform="translate(0 96)"></use>
	<use xlink:href="#icon-media-play" fill="#999999" transform="translate(16 96)"></use>
	<use xlink:href="#icon-media-play" fill="#CCCCCC" transform="translate(32 96)"></use>

	<use xlink:href="#icon-arrow-sync" fill="#333333" transform="translate(0 112)"></use>
	<use xlink:href="#icon-arrow-sync" fill="#666666" transform="translate(16 112)"></use>
	<use xlink:href="#icon-arrow-sync" fill="#999999" transform="translate(32 112)"></use>

	<use xlink:href="#icon-star-outline" fill="#333333" transform="translate(0 128)"></use>
	<use xlink:href="#icon-star-outline" fill="#666666" transform="translate(16 128)"></use>
	<use xlink:href="#icon-star-outline" fill="#999999" transform="translate(32 128)"></use>

	<use xlink:href="#icon-pencil" fill="#333333" transform="translate(0 144)"></use>
	<use xlink:href="#icon-pencil" fill="#666666" transform="translate(16 144)"></use>
	<use xlink:href="#icon-pencil" fill="#999999" transform="translate(32 144)"></use>

	<use xlink:href="#icon-calender" fill="#333333" transform="translate(0 160)"></use>
	<use xlink:href="#icon-calender" fill="#666666" transform="translate(16 160)"></use>
	<use xlink:href="#icon-calender" fill="#999999" transform="translate(32 160)"></use>

	<use xlink:href="#icon-star" fill="#333333" transform="translate(0 176)"></use>
	<use xlink:href="#icon-star" fill="#666666" transform="translate(16 176)"></use>
	<use xlink:href="#icon-star" fill="#999999" transform="translate(32 176)"></use>
</g>

</svg>
